<svg width="252" height="248" viewBox="0 0 252 248" fill="none" xmlns="http://www.w3.org/2000/svg">
<path d="M30.5102 205.683H125.552V128.152C125.552 117.967 117.296 109.705 107.105 109.705C96.914 109.705 88.6585 117.96 88.6585 128.152V167.797H38.1709V91.2459H37.6648C28.1759 91.2459 22.1978 81.0358 26.8348 72.7614L47.9319 35.1218H66.448C63.5381 42.384 60.9887 50.1081 58.6797 57.7562C57.4525 61.8238 52.6891 76.0826 52.6448 79.1633C52.6132 81.1939 52.98 82.9905 53.6506 84.5467C55.1056 87.9184 57.9776 90.1578 61.324 91.2459C64.4554 92.2644 67.9916 92.277 71.1546 91.2459C74.4694 90.1642 77.3604 87.9374 78.9482 84.5467C79.3847 83.6104 79.7389 82.5983 79.954 81.4849L89.8352 35.1218H115.335C114.677 39.9232 111.717 61.7479 110.464 74.1405C110.034 78.4168 111.002 81.8898 112.798 84.5467C115.411 88.3992 119.789 90.5121 124.337 90.7145V90.7398C124.521 90.7398 124.704 90.7272 124.887 90.7272C125.071 90.7272 125.254 90.7462 125.438 90.7398V90.7145C129.986 90.5121 134.37 88.3992 136.976 84.5467C138.773 81.8898 139.741 78.4168 139.311 74.1405C138.064 61.7479 135.098 39.9232 134.44 35.1218H159.94L169.821 81.4849C170.042 82.5983 170.39 83.6104 170.827 84.5467C172.415 87.9374 175.306 90.1642 178.62 91.2459C181.783 92.277 185.32 92.2644 188.451 91.2459C191.797 90.1578 194.676 87.9121 196.124 84.5467C196.795 82.9905 197.162 81.1939 197.13 79.1633C197.08 76.0889 192.322 61.8301 191.095 57.7562C188.792 50.1017 186.243 42.384 183.333 35.1218H203.14L224.237 72.7614C228.874 81.0358 222.896 91.2459 213.407 91.2459H212.901V169.827L125.526 205.683V247.162L232.201 203.387C243.259 198.813 251.046 187.919 251.046 175.204V30.4786C251.046 13.6451 237.401 0 220.568 0H30.4785C13.6451 0 0 13.6451 0 30.4786V175.204C0 192.038 13.6451 205.683 30.4785 205.683H30.5102Z" fill="#F3704A"/>
</svg>
